<?xml version="1.0" encoding="utf-8"?>
<!-- Generator: Adobe Illustrator 28.2.0, SVG Export Plug-In . SVG Version: 6.00 Build 0)  -->
<svg version="1.1" xmlns="http://www.w3.org/2000/svg" xmlns:xlink="http://www.w3.org/1999/xlink" x="0px" y="0px"
	 viewBox="0 0 210 200" style="enable-background:new 0 0 210 200;" xml:space="preserve">
<style type="text/css">
	.st0{fill:#156082;}
	.st1{fill:#D4D4D5;}
	.st2{fill:#929000;}
	.st3{fill:#D4D4D4;}
</style>
<g id="_x31_">
	<path class="st0" d="M36.1,65.1c0-17.3,14-31.3,31.3-31.3c17.6,0,31.4,14.1,31.4,32c0,17.2-14.3,30.9-32,30.9
		C50,96.6,36.1,82.3,36.1,65.1L36.1,65.1z"/>
	<path class="st1" d="M52,189.4l60.2-80.6c18.5-24.6,16.9-43.7,16.9-43.7c0-6.4-0.7-11.4-1.6-15.3c-0.1-0.3-0.3-0.7-0.4-1
		c-1-3.3-2.2-6.6-4-9.6l0,0C111.6,19.2,94.2,7.8,71,6.1C55.6,5.1,41.4,9.2,29.1,19C14.8,30.5,6.5,45.3,5.7,63.8
		C5.1,78.6,9.3,92,19.2,103.3c11.7,13.6,26.4,20.7,44.5,19.9c0.4,0,0.8,0,1.1,0c-0.2,0.4-0.3,0.8-0.6,1.1c-4,5.4-8,10.7-12.1,16.1
		c-8.7,11.6-17.5,23.2-26.2,34.9c-0.6,0.8-1,1.6,0,2.4c7.1,5.2,14.3,10.5,21.4,15.7c0.8,0.6,1.4,0.4,2-0.4L52,189.4z M67.7,33.8
		c17.4,0,31.4,14,31.4,31.4c0,17.6-14,31.3-31.9,31.3c-17,0-31-14.2-31-31.3C36.1,47.8,50.3,33.7,67.7,33.8z"/>
</g>
<g id="_x32_">
	<path class="st2" d="M111.1,134.8c0-17.6,14-31.3,31.9-31.3c17,0,31,14.2,31,31.3c0,17.4-14.1,31.4-31.5,31.4
		C125.1,166.2,111.1,152.2,111.1,134.8L111.1,134.8z"/>
	<path class="st3" d="M158,10.6L97.8,91.3c-18.5,24.6-16.9,43.7-16.9,43.7c0,6.4,0.7,11.4,1.6,15.3c0.1,0.3,0.3,0.7,0.4,1
		c1,3.3,2.2,6.6,4,9.6l0,0c11.7,20.1,29,31.5,52.2,33.1c15.4,1.1,29.6-3,41.9-12.9c14.3-11.5,22.7-26.2,23.4-44.8
		c0.6-14.8-3.6-28.2-13.4-39.5c-11.7-13.6-26.4-20.7-44.5-19.9c-0.4,0-0.8,0-1.1,0c0.2-0.4,0.3-0.8,0.6-1.1c4-5.4,8-10.7,12.1-16.1
		c8.7-11.6,17.5-23.2,26.2-34.9c0.6-0.8,1-1.6,0-2.4c-7.1-5.2-14.3-10.5-21.4-15.7c-0.8-0.6-1.4-0.4-2,0.4L158,10.6z M142.3,166.2
		c-17.4,0-31.4-14-31.4-31.4c0-17.6,14-31.3,31.9-31.3c17,0,31,14.2,31,31.3C173.9,152.2,159.7,166.3,142.3,166.2z"/>
</g>
</svg>
